# xmcd
#
# Track frame offsets: 
#        150
#        15382
#        33345
#        43979
#        64216
#        78430
#        96992
#        117808
#        130659
#        142278
#        156571
#        174047
#        192003
#
# Disc length: 2758 seconds
#
# Revision: 0
# Processed by: cddbd v1.5.2PL0 Copyright (c) Steve Scherf et al.
# Submitted via: ExactAudioCopy v0.99pb3
#
DISCID=ad0ac40d
DTITLE=Cabin Fever - The Door Is Always Open
DYEAR=2006
DGENRE=Country
TTITLE0=We Shall Be Reunited
TTITLE1=Can We Start Again
TTITLE2=Give Me That Kiss
TTITLE3=Sit and Cry
TTITLE4=Handsome Molly (Revisited)
TTITLE5=Mary Alice
TTITLE6=Covered Windows
TTITLE7=Back Home
TTITLE8=Yellow Mustang
TTITLE9=Some Sweet Magic
TTITLE10=Don't Walk Away
TTITLE11=What Are They Doing in Heaven Today
TTITLE12=The Door Is Always Open
EXTD=
EXTT0=
EXTT1=
EXTT2=
EXTT3=
EXTT4=
EXTT5=
EXTT6=
EXTT7=
EXTT8=
EXTT9=
EXTT10=
EXTT11=
EXTT12=
PLAYORDER=
